<svg xmlns="http://www.w3.org/2000/svg" version="1.1" xmlns:xlink="http://www.w3.org/1999/xlink" xmlns:svgjs="http://svgjs.dev/svgjs" width="1000" height="1000" viewBox="0 0 1000 1000"><rect width="1000" height="1000" fill="#000000"></rect><g transform="matrix(0.7,0,0,0.7,149.5757697529615,423.09165308859826)"><svg viewBox="0 0 396 87" data-background-color="#ffffff" preserveAspectRatio="xMidYMid meet" height="219" width="1000" xmlns="http://www.w3.org/2000/svg" xmlns:xlink="http://www.w3.org/1999/xlink"><g id="tight-bounds" transform="matrix(1,0,0,1,0.23999311118180344,0.14661822625814125)"><svg viewBox="0 0 395.5199999999999 86.70676610973696" height="86.70676610973696" width="395.5199999999999"><g><svg viewBox="0 0 536.0217410082867 117.50786743360517" height="86.70676610973696" width="395.5199999999999"><g transform="matrix(1,0,0,1,140.50174100828673,16.24023348756772)"><svg viewBox="0 0 395.52 85.02740045846973" height="85.02740045846973" width="395.52"><g id="textblocktransform"><svg viewBox="0 0 395.52 85.02740045846973" height="85.02740045846973" width="395.52" id="textblock"><g><svg viewBox="0 0 395.52 53.573828597001565" height="53.573828597001565" width="395.52"><g transform="matrix(1,0,0,1,0,0)"><svg width="395.52" viewBox="1.4500000476837158 -36.83000183105469 335.1399841308594 45.410003662109375" height="53.573828597001565" data-palette-color="#0718c4"><path d="M23.88-32.52L22.7-30.23Q22.48-29.85 22.23-29.66 21.98-29.48 21.58-29.48L21.58-29.48Q21.15-29.48 20.59-29.9 20.03-30.33 19.16-30.84 18.3-31.35 17.09-31.78 15.88-32.2 14.15-32.2L14.15-32.2Q12.53-32.2 11.28-31.76 10.03-31.33 9.19-30.58 8.35-29.83 7.93-28.81 7.5-27.8 7.5-26.63L7.5-26.63Q7.5-25.13 8.24-24.14 8.97-23.15 10.19-22.45 11.4-21.75 12.94-21.24 14.48-20.73 16.09-20.18 17.7-19.63 19.24-18.94 20.78-18.25 21.99-17.2 23.2-16.15 23.94-14.63 24.68-13.1 24.68-10.88L24.68-10.88Q24.68-8.53 23.88-6.46 23.08-4.4 21.54-2.88 20-1.35 17.76-0.48 15.53 0.4 12.68 0.4L12.68 0.4Q9.2 0.4 6.34-0.86 3.48-2.13 1.45-4.28L1.45-4.28 2.85-6.58Q3.05-6.85 3.34-7.04 3.63-7.23 3.98-7.23L3.98-7.23Q4.5-7.23 5.18-6.66 5.85-6.1 6.86-5.43 7.88-4.75 9.31-4.19 10.75-3.63 12.83-3.63L12.83-3.63Q14.55-3.63 15.9-4.1 17.25-4.58 18.19-5.44 19.13-6.3 19.63-7.5 20.13-8.7 20.13-10.18L20.13-10.18Q20.13-11.8 19.39-12.84 18.65-13.88 17.45-14.58 16.25-15.28 14.71-15.76 13.18-16.25 11.56-16.76 9.95-17.28 8.41-17.95 6.88-18.63 5.68-19.7 4.48-20.78 3.74-22.39 3-24 3-26.38L3-26.38Q3-28.28 3.74-30.05 4.48-31.83 5.88-33.2 7.28-34.58 9.34-35.4 11.4-36.23 14.08-36.23L14.08-36.23Q17.07-36.23 19.55-35.27 22.03-34.33 23.88-32.52L23.88-32.52ZM34.6 8.58L30.15 8.58 30.15-25.33 32.8-25.33Q33.75-25.33 34-24.4L34-24.4 34.37-21.4Q36-23.38 38.09-24.58 40.17-25.78 42.9-25.78L42.9-25.78Q45.07-25.78 46.85-24.94 48.62-24.1 49.87-22.46 51.12-20.83 51.8-18.4 52.47-15.98 52.47-12.83L52.47-12.83Q52.47-10.03 51.72-7.61 50.97-5.2 49.57-3.44 48.17-1.68 46.14-0.66 44.1 0.35 41.55 0.35L41.55 0.35Q39.2 0.35 37.53-0.43 35.87-1.2 34.6-2.63L34.6-2.63 34.6 8.58ZM41.42-22.18L41.42-22.18Q39.25-22.18 37.61-21.18 35.97-20.18 34.6-18.35L34.6-18.35 34.6-6.1Q35.82-4.45 37.28-3.78 38.75-3.1 40.55-3.1L40.55-3.1Q44.07-3.1 45.97-5.63 47.87-8.15 47.87-12.83L47.87-12.83Q47.87-15.3 47.44-17.07 47-18.85 46.17-19.99 45.35-21.13 44.15-21.65 42.95-22.18 41.42-22.18ZM76.34-16.2L76.34 0 74.37 0Q73.72 0 73.32-0.2 72.92-0.4 72.8-1.05L72.8-1.05 72.3-3.4Q71.3-2.5 70.34-1.79 69.39-1.07 68.34-0.59 67.3-0.1 66.11 0.15 64.92 0.4 63.47 0.4L63.47 0.4Q61.99 0.4 60.71-0.01 59.42-0.43 58.47-1.25 57.52-2.08 56.96-3.34 56.39-4.6 56.39-6.33L56.39-6.33Q56.39-7.83 57.22-9.21 58.05-10.6 59.88-11.68 61.72-12.75 64.69-13.44 67.67-14.13 71.97-14.23L71.97-14.23 71.97-16.2Q71.97-19.15 70.71-20.66 69.44-22.18 66.97-22.18L66.97-22.18Q65.34-22.18 64.23-21.76 63.12-21.35 62.31-20.84 61.49-20.33 60.91-19.91 60.32-19.5 59.74-19.5L59.74-19.5Q59.3-19.5 58.96-19.74 58.62-19.98 58.42-20.33L58.42-20.33 57.62-21.75Q59.72-23.78 62.14-24.78 64.57-25.78 67.52-25.78L67.52-25.78Q69.64-25.78 71.3-25.08 72.94-24.38 74.07-23.13 75.19-21.88 75.77-20.1 76.34-18.32 76.34-16.2L76.34-16.2ZM64.8-2.73L64.8-2.73Q65.97-2.73 66.94-2.96 67.92-3.2 68.78-3.64 69.64-4.08 70.43-4.7 71.22-5.33 71.97-6.13L71.97-6.13 71.97-11.4Q68.89-11.3 66.75-10.91 64.59-10.53 63.24-9.9 61.89-9.28 61.28-8.43 60.67-7.58 60.67-6.53L60.67-6.53Q60.67-5.53 60.99-4.8 61.32-4.08 61.87-3.61 62.42-3.15 63.17-2.94 63.92-2.73 64.8-2.73ZM87.54 0L83.09 0 83.09-25.33 85.64-25.33Q86.37-25.33 86.64-25.05 86.92-24.78 87.02-24.1L87.02-24.1 87.32-20.15Q88.62-22.8 90.53-24.29 92.44-25.78 95.02-25.78L95.02-25.78Q96.07-25.78 96.92-25.54 97.77-25.3 98.49-24.88L98.49-24.88 97.92-21.55Q97.74-20.93 97.14-20.93L97.14-20.93Q96.79-20.93 96.07-21.16 95.34-21.4 94.04-21.4L94.04-21.4Q91.72-21.4 90.16-20.05 88.59-18.7 87.54-16.13L87.54-16.13 87.54 0ZM103.39-36.83L107.87-36.83 107.87-15.15 109.02-15.15Q109.52-15.15 109.84-15.29 110.17-15.43 110.56-15.85L110.56-15.85 118.56-24.43Q118.94-24.83 119.31-25.08 119.69-25.33 120.31-25.33L120.31-25.33 124.37-25.33 115.04-15.4Q114.69-14.98 114.35-14.65 114.02-14.33 113.59-14.08L113.59-14.08Q114.04-13.78 114.4-13.39 114.77-13 115.09-12.5L115.09-12.5 124.99 0 120.99 0Q120.44 0 120.05-0.21 119.67-0.43 119.31-0.88L119.31-0.88 110.99-11.25Q110.62-11.78 110.24-11.94 109.87-12.1 109.12-12.1L109.12-12.1 107.87-12.1 107.87 0 103.39 0 103.39-36.83ZM149.66-32.52L148.49-30.23Q148.26-29.85 148.01-29.66 147.76-29.48 147.36-29.48L147.36-29.48Q146.94-29.48 146.38-29.9 145.81-30.33 144.95-30.84 144.09-31.35 142.88-31.78 141.66-32.2 139.94-32.2L139.94-32.2Q138.31-32.2 137.06-31.76 135.81-31.33 134.98-30.58 134.14-29.83 133.71-28.81 133.29-27.8 133.29-26.63L133.29-26.63Q133.29-25.13 134.03-24.14 134.76-23.15 135.98-22.45 137.19-21.75 138.73-21.24 140.26-20.73 141.88-20.18 143.49-19.63 145.03-18.94 146.56-18.25 147.78-17.2 148.99-16.15 149.73-14.63 150.46-13.1 150.46-10.88L150.46-10.88Q150.46-8.53 149.66-6.46 148.86-4.4 147.33-2.88 145.79-1.35 143.55-0.48 141.31 0.4 138.46 0.4L138.46 0.4Q134.99 0.4 132.13-0.86 129.26-2.13 127.24-4.28L127.24-4.28 128.64-6.58Q128.84-6.85 129.13-7.04 129.41-7.23 129.76-7.23L129.76-7.23Q130.29-7.23 130.96-6.66 131.64-6.1 132.65-5.43 133.66-4.75 135.1-4.19 136.54-3.63 138.61-3.63L138.61-3.63Q140.34-3.63 141.69-4.1 143.04-4.58 143.98-5.44 144.91-6.3 145.41-7.5 145.91-8.7 145.91-10.18L145.91-10.18Q145.91-11.8 145.18-12.84 144.44-13.88 143.24-14.58 142.04-15.28 140.5-15.76 138.96-16.25 137.35-16.76 135.74-17.28 134.2-17.95 132.66-18.63 131.46-19.7 130.26-20.78 129.53-22.39 128.79-24 128.79-26.38L128.79-26.38Q128.79-28.28 129.53-30.05 130.26-31.83 131.66-33.2 133.06-34.58 135.13-35.4 137.19-36.23 139.86-36.23L139.86-36.23Q142.86-36.23 145.34-35.27 147.81-34.33 149.66-32.52L149.66-32.52ZM160.39 0L155.94 0 155.94-36.83 160.39-36.83 160.39-21.93Q162.01-23.65 163.99-24.69 165.96-25.73 168.54-25.73L168.54-25.73Q170.61-25.73 172.2-25.04 173.79-24.35 174.85-23.09 175.91-21.83 176.46-20.05 177.01-18.28 177.01-16.13L177.01-16.13 177.01 0 172.56 0 172.56-16.13Q172.56-19 171.25-20.59 169.94-22.18 167.24-22.18L167.24-22.18Q165.26-22.18 163.55-21.23 161.84-20.28 160.39-18.65L160.39-18.65 160.39 0ZM184.23-25.33L188.68-25.33 188.68 0 184.23 0 184.23-25.33ZM189.68-33.27L189.68-33.27Q189.68-32.63 189.42-32.06 189.16-31.5 188.72-31.06 188.28-30.63 187.71-30.38 187.13-30.13 186.48-30.13L186.48-30.13Q185.83-30.13 185.27-30.38 184.71-30.63 184.27-31.06 183.83-31.5 183.58-32.06 183.33-32.63 183.33-33.27L183.33-33.27Q183.33-33.93 183.58-34.51 183.83-35.1 184.27-35.54 184.71-35.98 185.27-36.23 185.83-36.48 186.48-36.48L186.48-36.48Q187.13-36.48 187.71-36.23 188.28-35.98 188.72-35.54 189.16-35.1 189.42-34.51 189.68-33.93 189.68-33.27ZM202.01 0L197.53 0 197.53-21.53 194.73-21.85Q194.21-21.98 193.87-22.24 193.53-22.5 193.53-23L193.53-23 193.53-24.83 197.53-24.83 197.53-27.28Q197.53-29.45 198.14-31.14 198.76-32.83 199.89-33.99 201.03-35.15 202.63-35.75 204.23-36.35 206.23-36.35L206.23-36.35Q207.93-36.35 209.38-35.85L209.38-35.85 209.28-33.63Q209.26-33.13 208.86-33.02 208.46-32.93 207.73-32.93L207.73-32.93 206.96-32.93Q205.81-32.93 204.87-32.63 203.93-32.33 203.26-31.65 202.58-30.98 202.22-29.88 201.86-28.78 201.86-27.15L201.86-27.15 201.86-24.83 209.18-24.83 209.18-21.6 202.01-21.6 202.01 0ZM221.05 0.4L221.05 0.4Q218.05 0.4 216.44-1.28 214.83-2.95 214.83-6.1L214.83-6.1 214.83-21.6 211.78-21.6Q211.38-21.6 211.1-21.84 210.83-22.08 210.83-22.58L210.83-22.58 210.83-24.35 214.98-24.88 216-32.7Q216.05-33.08 216.33-33.31 216.6-33.55 217.03-33.55L217.03-33.55 219.28-33.55 219.28-24.83 226.53-24.83 226.53-21.6 219.28-21.6 219.28-6.4Q219.28-4.8 220.05-4.03 220.83-3.25 222.05-3.25L222.05-3.25Q222.75-3.25 223.27-3.44 223.78-3.63 224.15-3.85 224.53-4.08 224.79-4.26 225.05-4.45 225.25-4.45L225.25-4.45Q225.6-4.45 225.88-4.03L225.88-4.03 227.18-1.9Q226.03-0.83 224.4-0.21 222.78 0.4 221.05 0.4ZM247.22-35.83L247.22-4.08 262.72-4.08 262.72 0 242.37 0 242.37-35.83 247.22-35.83ZM285.97-16.2L285.97 0 284 0Q283.35 0 282.95-0.2 282.55-0.4 282.42-1.05L282.42-1.05 281.92-3.4Q280.92-2.5 279.97-1.79 279.02-1.07 277.97-0.59 276.92-0.1 275.73 0.15 274.55 0.4 273.1 0.4L273.1 0.4Q271.62 0.4 270.33-0.01 269.05-0.43 268.1-1.25 267.15-2.08 266.58-3.34 266.02-4.6 266.02-6.33L266.02-6.33Q266.02-7.83 266.85-9.21 267.67-10.6 269.51-11.68 271.35-12.75 274.32-13.44 277.3-14.13 281.6-14.23L281.6-14.23 281.6-16.2Q281.6-19.15 280.33-20.66 279.07-22.18 276.6-22.18L276.6-22.18Q274.97-22.18 273.86-21.76 272.75-21.35 271.93-20.84 271.12-20.33 270.53-19.91 269.95-19.5 269.37-19.5L269.37-19.5Q268.92-19.5 268.58-19.74 268.25-19.98 268.05-20.33L268.05-20.33 267.25-21.75Q269.35-23.78 271.77-24.78 274.2-25.78 277.15-25.78L277.15-25.78Q279.27-25.78 280.92-25.08 282.57-24.38 283.7-23.13 284.82-21.88 285.4-20.1 285.97-18.32 285.97-16.2L285.97-16.2ZM274.42-2.73L274.42-2.73Q275.6-2.73 276.57-2.96 277.55-3.2 278.41-3.64 279.27-4.08 280.06-4.7 280.85-5.33 281.6-6.13L281.6-6.13 281.6-11.4Q278.52-11.3 276.37-10.91 274.22-10.53 272.87-9.9 271.52-9.28 270.91-8.43 270.3-7.58 270.3-6.53L270.3-6.53Q270.3-5.53 270.62-4.8 270.95-4.08 271.5-3.61 272.05-3.15 272.8-2.94 273.55-2.73 274.42-2.73ZM295.74 0L292.87 0 292.87-36.83 297.34-36.83 297.34-21.68Q298.92-23.5 300.96-24.61 302.99-25.73 305.62-25.73L305.62-25.73Q307.82-25.73 309.59-24.9 311.37-24.08 312.62-22.44 313.87-20.8 314.54-18.39 315.22-15.98 315.22-12.83L315.22-12.83Q315.22-10.03 314.47-7.61 313.72-5.2 312.31-3.44 310.89-1.68 308.86-0.66 306.82 0.35 304.27 0.35L304.27 0.35Q301.82 0.35 300.11-0.6 298.39-1.55 297.12-3.25L297.12-3.25 296.89-0.95Q296.69 0 295.74 0L295.74 0ZM304.17-22.18L304.17-22.18Q301.99-22.18 300.36-21.18 298.72-20.18 297.34-18.35L297.34-18.35 297.34-6.1Q298.54-4.45 300.01-3.78 301.47-3.1 303.27-3.1L303.27-3.1Q306.82-3.1 308.72-5.63 310.62-8.15 310.62-12.83L310.62-12.83Q310.62-15.3 310.18-17.07 309.74-18.85 308.92-19.99 308.09-21.13 306.89-21.65 305.69-22.18 304.17-22.18ZM336.17-22.78L335.17-21.15Q334.87-20.6 334.24-20.6L334.24-20.6Q333.87-20.6 333.39-20.88 332.92-21.15 332.23-21.49 331.54-21.83 330.59-22.11 329.64-22.4 328.34-22.4L328.34-22.4Q327.22-22.4 326.32-22.11 325.42-21.83 324.78-21.33 324.14-20.83 323.8-20.16 323.47-19.5 323.47-18.73L323.47-18.73Q323.47-17.75 324.03-17.1 324.59-16.45 325.52-15.98 326.44-15.5 327.62-15.14 328.79-14.78 330.03-14.36 331.27-13.95 332.44-13.45 333.62-12.95 334.54-12.2 335.47-11.45 336.03-10.36 336.59-9.28 336.59-7.75L336.59-7.75Q336.59-6 335.97-4.51 335.34-3.03 334.12-1.94 332.89-0.85 331.12-0.23 329.34 0.4 327.02 0.4L327.02 0.4Q324.37 0.4 322.22-0.46 320.07-1.33 318.57-2.68L318.57-2.68 319.62-4.38Q319.82-4.7 320.09-4.88 320.37-5.05 320.82-5.05L320.82-5.05Q321.27-5.05 321.77-4.7 322.27-4.35 322.98-3.93 323.69-3.5 324.7-3.15 325.72-2.8 327.24-2.8L327.24-2.8Q328.54-2.8 329.52-3.14 330.49-3.48 331.14-4.05 331.79-4.63 332.1-5.38 332.42-6.13 332.42-6.98L332.42-6.98Q332.42-8.03 331.85-8.71 331.29-9.4 330.37-9.89 329.44-10.38 328.25-10.74 327.07-11.1 325.83-11.5 324.59-11.9 323.4-12.41 322.22-12.93 321.29-13.7 320.37-14.48 319.8-15.61 319.24-16.75 319.24-18.38L319.24-18.38Q319.24-19.83 319.84-21.16 320.44-22.5 321.59-23.51 322.74-24.53 324.42-25.13 326.09-25.73 328.24-25.73L328.24-25.73Q330.74-25.73 332.73-24.94 334.72-24.15 336.17-22.78L336.17-22.78Z" opacity="1" transform="matrix(1,0,0,1,0,0)" fill="#ffffff" class="wordmark-text-0" data-fill-palette-color="primary" id="text-0"></path></svg></g></svg></g><g transform="matrix(1,0,0,1,0,66.2213237568673)"><svg viewBox="0 0 232.20979200000002 18.80607670160242" height="18.80607670160242" width="232.20979200000002"><g transform="matrix(1,0,0,1,0,0)"><svg width="232.20979200000002" viewBox="5.699999809265137 -37.099998474121094 461.7599792480469 37.39999771118164" height="18.80607670160242" data-palette-color="#77d4fc"><path d="M27.75-18.05Q31.2-17.3 33.08-15.08 34.95-12.85 34.95-9.35L34.95-9.35Q34.95-4.85 31.63-2.43 28.3 0 21.8 0L21.8 0 5.7 0 5.7-35 20.8-35Q26.65-35 29.88-32.65 33.1-30.3 33.1-26L33.1-26Q33.1-23.1 31.68-21.08 30.25-19.05 27.75-18.05L27.75-18.05ZM20.55-31.95L9.4-31.95 9.4-19.25 20.55-19.25Q24.8-19.25 27.1-20.88 29.4-22.5 29.4-25.6L29.4-25.6Q29.4-28.7 27.1-30.33 24.8-31.95 20.55-31.95L20.55-31.95ZM21.75-3.05Q26.45-3.05 28.85-4.65 31.25-6.25 31.25-9.65L31.25-9.65Q31.25-16.2 21.75-16.2L21.75-16.2 9.4-16.2 9.4-3.05 21.75-3.05ZM62.8-26.3L66.35-26.3 66.35 0 62.95 0 62.95-4.8Q61.55-2.4 59.1-1.07 56.65 0.25 53.5 0.25L53.5 0.25Q48.35 0.25 45.37-2.63 42.4-5.5 42.4-11.05L42.4-11.05 42.4-26.3 45.95-26.3 45.95-11.4Q45.95-7.25 48-5.1 50.05-2.95 53.85-2.95L53.85-2.95Q58-2.95 60.4-5.48 62.8-8 62.8-12.5L62.8-12.5 62.8-26.3ZM83.34 0.25Q80.14 0.25 77.22-0.68 74.3-1.6 72.64-3L72.64-3 74.25-5.8Q75.89-4.5 78.39-3.68 80.89-2.85 83.59-2.85L83.59-2.85Q87.19-2.85 88.92-3.98 90.64-5.1 90.64-7.15L90.64-7.15Q90.64-8.6 89.69-9.43 88.75-10.25 87.3-10.68 85.84-11.1 83.44-11.5L83.44-11.5Q80.25-12.1 78.3-12.73 76.34-13.35 74.97-14.85 73.59-16.35 73.59-19L73.59-19Q73.59-22.3 76.34-24.4 79.09-26.5 84-26.5L84-26.5Q86.55-26.5 89.09-25.83 91.64-25.15 93.3-24.05L93.3-24.05 91.75-21.2Q88.5-23.45 84-23.45L84-23.45Q80.59-23.45 78.87-22.25 77.14-21.05 77.14-19.1L77.14-19.1Q77.14-17.6 78.12-16.7 79.09-15.8 80.55-15.38 82-14.95 84.55-14.5L84.55-14.5Q87.69-13.9 89.59-13.3 91.5-12.7 92.84-11.25 94.19-9.8 94.19-7.25L94.19-7.25Q94.19-3.8 91.32-1.78 88.44 0.25 83.34 0.25L83.34 0.25ZM100.74 0L100.74-26.3 104.29-26.3 104.29 0 100.74 0ZM102.54-32.05Q101.44-32.05 100.69-32.8 99.94-33.55 99.94-34.6L99.94-34.6Q99.94-35.6 100.69-36.35 101.44-37.1 102.54-37.1L102.54-37.1Q103.64-37.1 104.39-36.38 105.14-35.65 105.14-34.65L105.14-34.65Q105.14-33.55 104.39-32.8 103.64-32.05 102.54-32.05L102.54-32.05ZM127.59-26.5Q132.54-26.5 135.47-23.63 138.39-20.75 138.39-15.25L138.39-15.25 138.39 0 134.84 0 134.84-14.9Q134.84-19 132.79-21.15 130.74-23.3 126.94-23.3L126.94-23.3Q122.69-23.3 120.22-20.78 117.74-18.25 117.74-13.8L117.74-13.8 117.74 0 114.19 0 114.19-26.3 117.59-26.3 117.59-21.45Q119.04-23.85 121.62-25.18 124.19-26.5 127.59-26.5L127.59-26.5ZM159.39-2.9Q161.84-2.9 163.91-3.78 165.99-4.65 167.44-6.35L167.44-6.35 169.44-4.05Q167.69-1.95 165.09-0.85 162.49 0.25 159.34 0.25L159.34 0.25Q155.29 0.25 152.14-1.48 148.99-3.2 147.24-6.25 145.49-9.3 145.49-13.15L145.49-13.15Q145.49-17 147.16-20.05 148.84-23.1 151.79-24.8 154.74-26.5 158.49-26.5L158.49-26.5Q161.99-26.5 164.81-24.9 167.64-23.3 169.31-20.45 170.99-17.6 171.09-13.95L171.09-13.95 149.49-9.75Q150.49-6.55 153.11-4.73 155.74-2.9 159.39-2.9L159.39-2.9ZM158.49-23.45Q155.74-23.45 153.56-22.18 151.39-20.9 150.16-18.63 148.94-16.35 148.94-13.4L148.94-13.4Q148.94-12.65 148.99-12.3L148.99-12.3 167.54-15.9Q166.94-19.2 164.49-21.33 162.04-23.45 158.49-23.45L158.49-23.45ZM185.38 0.25Q182.19 0.25 179.26-0.68 176.33-1.6 174.69-3L174.69-3 176.28-5.8Q177.94-4.5 180.44-3.68 182.94-2.85 185.63-2.85L185.63-2.85Q189.23-2.85 190.96-3.98 192.69-5.1 192.69-7.15L192.69-7.15Q192.69-8.6 191.73-9.43 190.78-10.25 189.33-10.68 187.88-11.1 185.48-11.5L185.48-11.5Q182.28-12.1 180.33-12.73 178.38-13.35 177.01-14.85 175.63-16.35 175.63-19L175.63-19Q175.63-22.3 178.38-24.4 181.13-26.5 186.03-26.5L186.03-26.5Q188.58-26.5 191.13-25.83 193.69-25.15 195.33-24.05L195.33-24.05 193.78-21.2Q190.53-23.45 186.03-23.45L186.03-23.45Q182.63-23.45 180.91-22.25 179.19-21.05 179.19-19.1L179.19-19.1Q179.19-17.6 180.16-16.7 181.13-15.8 182.58-15.38 184.03-14.95 186.58-14.5L186.58-14.5Q189.73-13.9 191.63-13.3 193.53-12.7 194.88-11.25 196.23-9.8 196.23-7.25L196.23-7.25Q196.23-3.8 193.36-1.78 190.48 0.25 185.38 0.25L185.38 0.25ZM209.83 0.25Q206.63 0.25 203.71-0.68 200.78-1.6 199.13-3L199.13-3 200.73-5.8Q202.38-4.5 204.88-3.68 207.38-2.85 210.08-2.85L210.08-2.85Q213.68-2.85 215.41-3.98 217.13-5.1 217.13-7.15L217.13-7.15Q217.13-8.6 216.18-9.43 215.23-10.25 213.78-10.68 212.33-11.1 209.93-11.5L209.93-11.5Q206.73-12.1 204.78-12.73 202.83-13.35 201.46-14.85 200.08-16.35 200.08-19L200.08-19Q200.08-22.3 202.83-24.4 205.58-26.5 210.48-26.5L210.48-26.5Q213.03-26.5 215.58-25.83 218.13-25.15 219.78-24.05L219.78-24.05 218.23-21.2Q214.98-23.45 210.48-23.45L210.48-23.45Q207.08-23.45 205.36-22.25 203.63-21.05 203.63-19.1L203.63-19.1Q203.63-17.6 204.61-16.7 205.58-15.8 207.03-15.38 208.48-14.95 211.03-14.5L211.03-14.5Q214.18-13.9 216.08-13.3 217.98-12.7 219.33-11.25 220.68-9.8 220.68-7.25L220.68-7.25Q220.68-3.8 217.81-1.78 214.93 0.25 209.83 0.25L209.83 0.25ZM250.73 0.3Q246.83 0.3 243.25-0.95 239.68-2.2 237.73-4.25L237.73-4.25 239.18-7.1Q241.08-5.2 244.23-4.03 247.38-2.85 250.73-2.85L250.73-2.85Q255.43-2.85 257.78-4.58 260.13-6.3 260.13-9.05L260.13-9.05Q260.13-11.15 258.85-12.4 257.58-13.65 255.73-14.33 253.88-15 250.58-15.8L250.58-15.8Q246.63-16.8 244.28-17.73 241.93-18.65 240.25-20.55 238.58-22.45 238.58-25.7L238.58-25.7Q238.58-28.35 239.98-30.53 241.38-32.7 244.28-34 247.18-35.3 251.48-35.3L251.48-35.3Q254.48-35.3 257.35-34.48 260.23-33.65 262.33-32.2L262.33-32.2 261.08-29.25Q258.88-30.7 256.38-31.43 253.88-32.15 251.48-32.15L251.48-32.15Q246.88-32.15 244.55-30.38 242.23-28.6 242.23-25.8L242.23-25.8Q242.23-23.7 243.5-22.43 244.78-21.15 246.7-20.48 248.63-19.8 251.88-19L251.88-19Q255.73-18.05 258.1-17.13 260.48-16.2 262.13-14.33 263.78-12.45 263.78-9.25L263.78-9.25Q263.78-6.6 262.35-4.42 260.93-2.25 257.98-0.98 255.03 0.3 250.73 0.3L250.73 0.3ZM281.82 0.25Q278.02 0.25 274.97-1.48 271.92-3.2 270.17-6.25 268.42-9.3 268.42-13.15L268.42-13.15Q268.42-17 270.17-20.05 271.92-23.1 274.97-24.8 278.02-26.5 281.82-26.5L281.82-26.5Q285.62-26.5 288.67-24.8 291.72-23.1 293.45-20.05 295.17-17 295.17-13.15L295.17-13.15Q295.17-9.3 293.45-6.25 291.72-3.2 288.67-1.48 285.62 0.25 281.82 0.25L281.82 0.25ZM281.82-2.9Q284.62-2.9 286.85-4.17 289.07-5.45 290.32-7.8 291.57-10.15 291.57-13.15L291.57-13.15Q291.57-16.15 290.32-18.5 289.07-20.85 286.85-22.13 284.62-23.4 281.82-23.4L281.82-23.4Q279.02-23.4 276.8-22.13 274.57-20.85 273.3-18.5 272.02-16.15 272.02-13.15L272.02-13.15Q272.02-10.15 273.3-7.8 274.57-5.45 276.8-4.17 279.02-2.9 281.82-2.9L281.82-2.9ZM309.82 0.25Q306.27 0.25 304.35-1.75 302.42-3.75 302.42-7.3L302.42-7.3 302.42-37.1 305.97-37.1 305.97-7.6Q305.97-5.25 307.07-4.03 308.17-2.8 310.37-2.8L310.37-2.8Q311.77-2.8 312.77-3.25L312.77-3.25 313.02-0.3Q311.47 0.25 309.82 0.25L309.82 0.25ZM338.02-26.3L341.57-26.3 341.57 0 338.17 0 338.17-4.8Q336.77-2.4 334.32-1.07 331.87 0.25 328.72 0.25L328.72 0.25Q323.57 0.25 320.59-2.63 317.62-5.5 317.62-11.05L317.62-11.05 317.62-26.3 321.17-26.3 321.17-11.4Q321.17-7.25 323.22-5.1 325.27-2.95 329.07-2.95L329.07-2.95Q333.22-2.95 335.62-5.48 338.02-8 338.02-12.5L338.02-12.5 338.02-26.3ZM363.22-4.15L364.47-1.6Q363.47-0.7 362.02-0.23 360.57 0.25 358.97 0.25L358.97 0.25Q355.27 0.25 353.27-1.75 351.27-3.75 351.27-7.4L351.27-7.4 351.27-32.05 354.82-32.05 354.82-26.3 362.77-26.3 362.77-23.3 354.82-23.3 354.82-7.6Q354.82-5.25 355.97-4.03 357.12-2.8 359.32-2.8L359.32-2.8Q361.72-2.8 363.22-4.15L363.22-4.15ZM370.91 0L370.91-26.3 374.46-26.3 374.46 0 370.91 0ZM372.71-32.05Q371.61-32.05 370.86-32.8 370.11-33.55 370.11-34.6L370.11-34.6Q370.11-35.6 370.86-36.35 371.61-37.1 372.71-37.1L372.71-37.1Q373.81-37.1 374.56-36.38 375.31-35.65 375.31-34.65L375.31-34.65Q375.31-33.55 374.56-32.8 373.81-32.05 372.71-32.05L372.71-32.05ZM395.11 0.25Q391.31 0.25 388.26-1.48 385.21-3.2 383.46-6.25 381.71-9.3 381.71-13.15L381.71-13.15Q381.71-17 383.46-20.05 385.21-23.1 388.26-24.8 391.31-26.5 395.11-26.5L395.11-26.5Q398.91-26.5 401.96-24.8 405.01-23.1 406.74-20.05 408.46-17 408.46-13.15L408.46-13.15Q408.46-9.3 406.74-6.25 405.01-3.2 401.96-1.48 398.91 0.25 395.11 0.25L395.11 0.25ZM395.11-2.9Q397.91-2.9 400.14-4.17 402.36-5.45 403.61-7.8 404.86-10.15 404.86-13.15L404.86-13.15Q404.86-16.15 403.61-18.5 402.36-20.85 400.14-22.13 397.91-23.4 395.11-23.4L395.11-23.4Q392.31-23.4 390.09-22.13 387.86-20.85 386.59-18.5 385.31-16.15 385.31-13.15L385.31-13.15Q385.31-10.15 386.59-7.8 387.86-5.45 390.09-4.17 392.31-2.9 395.11-2.9L395.11-2.9ZM429.11-26.5Q434.06-26.5 436.98-23.63 439.91-20.75 439.91-15.25L439.91-15.25 439.91 0 436.36 0 436.36-14.9Q436.36-19 434.31-21.15 432.26-23.3 428.46-23.3L428.46-23.3Q424.21-23.3 421.73-20.78 419.26-18.25 419.26-13.8L419.26-13.8 419.26 0 415.71 0 415.71-26.3 419.11-26.3 419.11-21.45Q420.56-23.85 423.13-25.18 425.71-26.5 429.11-26.5L429.11-26.5ZM456.61 0.25Q453.41 0.25 450.48-0.68 447.56-1.6 445.91-3L445.91-3 447.51-5.8Q449.16-4.5 451.66-3.68 454.16-2.85 456.86-2.85L456.86-2.85Q460.46-2.85 462.18-3.98 463.91-5.1 463.91-7.15L463.91-7.15Q463.91-8.6 462.96-9.43 462.01-10.25 460.56-10.68 459.11-11.1 456.71-11.5L456.71-11.5Q453.51-12.1 451.56-12.73 449.61-13.35 448.23-14.85 446.86-16.35 446.86-19L446.86-19Q446.86-22.3 449.61-24.4 452.36-26.5 457.26-26.5L457.26-26.5Q459.81-26.5 462.36-25.83 464.91-25.15 466.56-24.05L466.56-24.05 465.01-21.2Q461.76-23.45 457.26-23.45L457.26-23.45Q453.86-23.45 452.13-22.25 450.41-21.05 450.41-19.1L450.41-19.1Q450.41-17.6 451.38-16.7 452.36-15.8 453.81-15.38 455.26-14.95 457.81-14.5L457.81-14.5Q460.96-13.9 462.86-13.3 464.76-12.7 466.11-11.25 467.46-9.8 467.46-7.25L467.46-7.25Q467.46-3.8 464.58-1.78 461.71 0.25 456.61 0.25L456.61 0.25Z" opacity="1" transform="matrix(1,0,0,1,0,0)" fill="#ffffff" class="slogan-text-1" data-fill-palette-color="secondary" id="text-1"></path></svg></g></svg></g></svg></g></svg></g><g><svg viewBox="0 0 127.85424584842097 117.50786743360517" height="117.50786743360517" width="127.85424584842097"><g><svg xmlns="http://www.w3.org/2000/svg" xmlns:xlink="http://www.w3.org/1999/xlink" version="1.1" x="0" y="0" viewBox="6.364530563354492 13.667492866516113 57.33220672607422 52.69269943237305" style="enable-background:new 0 0 70 80;" xml:space="preserve" height="117.50786743360517" width="127.85424584842097" class="icon-icon-0" data-fill-palette-color="accent" id="icon-0"><path d="M61.3 28.6c-6.8 1.5-13.3 4.2-20 6.1 3.6-6.1 7.2-12.2 10.8-18.3 0.9-1.5-0.9-3.4-2.5-2.5-7.3 4.6-13.9 10.7-20.4 16.2-7.8 6.6-16.5 13.3-22.6 21.5-0.9 1.3 1 2.5 2 1.7C14.8 52 20.8 50 27 48.6c-1.5 5.4-3.1 10.8-5 16-0.4 1.1 1.1 2.3 2 1.5 13.7-10.6 25.9-23.2 39.1-34.5C64.6 30.4 63 28.3 61.3 28.6zM25.9 60.6c1.3-4.4 2.6-8.9 3.8-13.3 0.2-0.9-0.6-1.6-1.4-1.4-5.4 1.1-10.7 2.8-16.1 4.2C22.8 40.4 33.3 29.9 45 21.4c-3 5.1-6 10.1-9 15.2-0.8 1.4 0.5 3 2.1 2.7 5.7-1.2 11.1-3.3 16.5-5.1C44.8 42.8 35.3 51.7 25.9 60.6z" fill="#ffffff" data-fill-palette-color="accent"></path></svg></g></svg></g></svg></g><defs></defs></svg><rect width="395.5199999999999" height="86.70676610973696" fill="none" stroke="none" visibility="hidden"></rect></g></svg></g></svg>